<?xml version="1.0" standalone="no"?>
<svg xmlns="http://www.w3.org/2000/svg" version="1.1" width="220" height="220">
	<!-- Created with https://api.qrserver.com (QR Code API, see goQR.me/api for information) -->
	<title>QR Code</title>
	<desc>BEGIN:VCARD
N:Meijer;Rick;;;
ADR;INTL;PARCEL;WORK:;;Abrikozenstraat 71;Den Haag;Zuid-Holland;2564VM;
EMAIL;INTERNET:info@rickmeijer.net
ORG:rickmeijer.net
TEL;WORK:+316 149 06 491
TITLE:developer
URL;WORK:rickmeijer.net
END:VCARD</desc>
	<rect style="fill:rgb(255, 255, 255);fill-opacity:1" x="0" y="0" width="220" height="220" />
	<g id="elements">
		<path style="fill:rgb(0, 0, 0)" d="M 4,4 l 4,0 0,4 -4,0 z M 8,4 l 4,0 0,4 -4,0 z M 12,4 l 4,0 0,4 -4,0 z M 16,4 l 4,0 0,4 -4,0 z M 20,4 l 4,0 0,4 -4,0 z M 24,4 l 4,0 0,4 -4,0 z M 28,4 l 4,0 0,4 -4,0 z M 40,4 l 4,0 0,4 -4,0 z M 44,4 l 4,0 0,4 -4,0 z M 56,4 l 4,0 0,4 -4,0 z M 60,4 l 4,0 0,4 -4,0 z M 64,4 l 4,0 0,4 -4,0 z M 72,4 l 4,0 0,4 -4,0 z M 76,4 l 4,0 0,4 -4,0 z M 84,4 l 4,0 0,4 -4,0 z M 96,4 l 4,0 0,4 -4,0 z M 108,4 l 4,0 0,4 -4,0 z M 112,4 l 4,0 0,4 -4,0 z M 116,4 l 4,0 0,4 -4,0 z M 120,4 l 4,0 0,4 -4,0 z M 124,4 l 4,0 0,4 -4,0 z M 128,4 l 4,0 0,4 -4,0 z M 132,4 l 4,0 0,4 -4,0 z M 136,4 l 4,0 0,4 -4,0 z M 140,4 l 4,0 0,4 -4,0 z M 144,4 l 4,0 0,4 -4,0 z M 152,4 l 4,0 0,4 -4,0 z M 156,4 l 4,0 0,4 -4,0 z M 160,4 l 4,0 0,4 -4,0 z M 164,4 l 4,0 0,4 -4,0 z M 172,4 l 4,0 0,4 -4,0 z M 188,4 l 4,0 0,4 -4,0 z M 192,4 l 4,0 0,4 -4,0 z M 196,4 l 4,0 0,4 -4,0 z M 200,4 l 4,0 0,4 -4,0 z M 204,4 l 4,0 0,4 -4,0 z M 208,4 l 4,0 0,4 -4,0 z M 212,4 l 4,0 0,4 -4,0 z M 4,8 l 4,0 0,4 -4,0 z M 28,8 l 4,0 0,4 -4,0 z M 36,8 l 4,0 0,4 -4,0 z M 40,8 l 4,0 0,4 -4,0 z M 48,8 l 4,0 0,4 -4,0 z M 56,8 l 4,0 0,4 -4,0 z M 60,8 l 4,0 0,4 -4,0 z M 68,8 l 4,0 0,4 -4,0 z M 72,8 l 4,0 0,4 -4,0 z M 76,8 l 4,0 0,4 -4,0 z M 84,8 l 4,0 0,4 -4,0 z M 88,8 l 4,0 0,4 -4,0 z M 104,8 l 4,0 0,4 -4,0 z M 116,8 l 4,0 0,4 -4,0 z M 124,8 l 4,0 0,4 -4,0 z M 128,8 l 4,0 0,4 -4,0 z M 136,8 l 4,0 0,4 -4,0 z M 140,8 l 4,0 0,4 -4,0 z M 148,8 l 4,0 0,4 -4,0 z M 164,8 l 4,0 0,4 -4,0 z M 168,8 l 4,0 0,4 -4,0 z M 172,8 l 4,0 0,4 -4,0 z M 176,8 l 4,0 0,4 -4,0 z M 188,8 l 4,0 0,4 -4,0 z M 212,8 l 4,0 0,4 -4,0 z M 4,12 l 4,0 0,4 -4,0 z M 12,12 l 4,0 0,4 -4,0 z M 16,12 l 4,0 0,4 -4,0 z M 20,12 l 4,0 0,4 -4,0 z M 28,12 l 4,0 0,4 -4,0 z M 40,12 l 4,0 0,4 -4,0 z M 48,12 l 4,0 0,4 -4,0 z M 56,12 l 4,0 0,4 -4,0 z M 68,12 l 4,0 0,4 -4,0 z M 72,12 l 4,0 0,4 -4,0 z M 76,12 l 4,0 0,4 -4,0 z M 84,12 l 4,0 0,4 -4,0 z M 88,12 l 4,0 0,4 -4,0 z M 92,12 l 4,0 0,4 -4,0 z M 96,12 l 4,0 0,4 -4,0 z M 104,12 l 4,0 0,4 -4,0 z M 112,12 l 4,0 0,4 -4,0 z M 116,12 l 4,0 0,4 -4,0 z M 140,12 l 4,0 0,4 -4,0 z M 144,12 l 4,0 0,4 -4,0 z M 152,12 l 4,0 0,4 -4,0 z M 176,12 l 4,0 0,4 -4,0 z M 188,12 l 4,0 0,4 -4,0 z M 196,12 l 4,0 0,4 -4,0 z M 200,12 l 4,0 0,4 -4,0 z M 204,12 l 4,0 0,4 -4,0 z M 212,12 l 4,0 0,4 -4,0 z M 4,16 l 4,0 0,4 -4,0 z M 12,16 l 4,0 0,4 -4,0 z M 16,16 l 4,0 0,4 -4,0 z M 20,16 l 4,0 0,4 -4,0 z M 28,16 l 4,0 0,4 -4,0 z M 36,16 l 4,0 0,4 -4,0 z M 40,16 l 4,0 0,4 -4,0 z M 44,16 l 4,0 0,4 -4,0 z M 48,16 l 4,0 0,4 -4,0 z M 52,16 l 4,0 0,4 -4,0 z M 64,16 l 4,0 0,4 -4,0 z M 68,16 l 4,0 0,4 -4,0 z M 72,16 l 4,0 0,4 -4,0 z M 76,16 l 4,0 0,4 -4,0 z M 84,16 l 4,0 0,4 -4,0 z M 92,16 l 4,0 0,4 -4,0 z M 100,16 l 4,0 0,4 -4,0 z M 104,16 l 4,0 0,4 -4,0 z M 140,16 l 4,0 0,4 -4,0 z M 148,16 l 4,0 0,4 -4,0 z M 152,16 l 4,0 0,4 -4,0 z M 156,16 l 4,0 0,4 -4,0 z M 160,16 l 4,0 0,4 -4,0 z M 172,16 l 4,0 0,4 -4,0 z M 180,16 l 4,0 0,4 -4,0 z M 188,16 l 4,0 0,4 -4,0 z M 196,16 l 4,0 0,4 -4,0 z M 200,16 l 4,0 0,4 -4,0 z M 204,16 l 4,0 0,4 -4,0 z M 212,16 l 4,0 0,4 -4,0 z M 4,20 l 4,0 0,4 -4,0 z M 12,20 l 4,0 0,4 -4,0 z M 16,20 l 4,0 0,4 -4,0 z M 20,20 l 4,0 0,4 -4,0 z M 28,20 l 4,0 0,4 -4,0 z M 40,20 l 4,0 0,4 -4,0 z M 48,20 l 4,0 0,4 -4,0 z M 64,20 l 4,0 0,4 -4,0 z M 96,20 l 4,0 0,4 -4,0 z M 100,20 l 4,0 0,4 -4,0 z M 104,20 l 4,0 0,4 -4,0 z M 108,20 l 4,0 0,4 -4,0 z M 112,20 l 4,0 0,4 -4,0 z M 116,20 l 4,0 0,4 -4,0 z M 124,20 l 4,0 0,4 -4,0 z M 128,20 l 4,0 0,4 -4,0 z M 140,20 l 4,0 0,4 -4,0 z M 144,20 l 4,0 0,4 -4,0 z M 148,20 l 4,0 0,4 -4,0 z M 168,20 l 4,0 0,4 -4,0 z M 172,20 l 4,0 0,4 -4,0 z M 188,20 l 4,0 0,4 -4,0 z M 196,20 l 4,0 0,4 -4,0 z M 200,20 l 4,0 0,4 -4,0 z M 204,20 l 4,0 0,4 -4,0 z M 212,20 l 4,0 0,4 -4,0 z M 4,24 l 4,0 0,4 -4,0 z M 28,24 l 4,0 0,4 -4,0 z M 36,24 l 4,0 0,4 -4,0 z M 40,24 l 4,0 0,4 -4,0 z M 52,24 l 4,0 0,4 -4,0 z M 60,24 l 4,0 0,4 -4,0 z M 84,24 l 4,0 0,4 -4,0 z M 100,24 l 4,0 0,4 -4,0 z M 116,24 l 4,0 0,4 -4,0 z M 136,24 l 4,0 0,4 -4,0 z M 144,24 l 4,0 0,4 -4,0 z M 152,24 l 4,0 0,4 -4,0 z M 156,24 l 4,0 0,4 -4,0 z M 160,24 l 4,0 0,4 -4,0 z M 164,24 l 4,0 0,4 -4,0 z M 172,24 l 4,0 0,4 -4,0 z M 188,24 l 4,0 0,4 -4,0 z M 212,24 l 4,0 0,4 -4,0 z M 4,28 l 4,0 0,4 -4,0 z M 8,28 l 4,0 0,4 -4,0 z M 12,28 l 4,0 0,4 -4,0 z M 16,28 l 4,0 0,4 -4,0 z M 20,28 l 4,0 0,4 -4,0 z M 24,28 l 4,0 0,4 -4,0 z M 28,28 l 4,0 0,4 -4,0 z M 36,28 l 4,0 0,4 -4,0 z M 44,28 l 4,0 0,4 -4,0 z M 52,28 l 4,0 0,4 -4,0 z M 60,28 l 4,0 0,4 -4,0 z M 68,28 l 4,0 0,4 -4,0 z M 76,28 l 4,0 0,4 -4,0 z M 84,28 l 4,0 0,4 -4,0 z M 92,28 l 4,0 0,4 -4,0 z M 100,28 l 4,0 0,4 -4,0 z M 108,28 l 4,0 0,4 -4,0 z M 116,28 l 4,0 0,4 -4,0 z M 124,28 l 4,0 0,4 -4,0 z M 132,28 l 4,0 0,4 -4,0 z M 140,28 l 4,0 0,4 -4,0 z M 148,28 l 4,0 0,4 -4,0 z M 156,28 l 4,0 0,4 -4,0 z M 164,28 l 4,0 0,4 -4,0 z M 172,28 l 4,0 0,4 -4,0 z M 180,28 l 4,0 0,4 -4,0 z M 188,28 l 4,0 0,4 -4,0 z M 192,28 l 4,0 0,4 -4,0 z M 196,28 l 4,0 0,4 -4,0 z M 200,28 l 4,0 0,4 -4,0 z M 204,28 l 4,0 0,4 -4,0 z M 208,28 l 4,0 0,4 -4,0 z M 212,28 l 4,0 0,4 -4,0 z M 40,32 l 4,0 0,4 -4,0 z M 48,32 l 4,0 0,4 -4,0 z M 56,32 l 4,0 0,4 -4,0 z M 60,32 l 4,0 0,4 -4,0 z M 64,32 l 4,0 0,4 -4,0 z M 72,32 l 4,0 0,4 -4,0 z M 76,32 l 4,0 0,4 -4,0 z M 100,32 l 4,0 0,4 -4,0 z M 116,32 l 4,0 0,4 -4,0 z M 120,32 l 4,0 0,4 -4,0 z M 124,32 l 4,0 0,4 -4,0 z M 128,32 l 4,0 0,4 -4,0 z M 132,32 l 4,0 0,4 -4,0 z M 136,32 l 4,0 0,4 -4,0 z M 144,32 l 4,0 0,4 -4,0 z M 156,32 l 4,0 0,4 -4,0 z M 160,32 l 4,0 0,4 -4,0 z M 168,32 l 4,0 0,4 -4,0 z M 180,32 l 4,0 0,4 -4,0 z M 4,36 l 4,0 0,4 -4,0 z M 8,36 l 4,0 0,4 -4,0 z M 12,36 l 4,0 0,4 -4,0 z M 16,36 l 4,0 0,4 -4,0 z M 20,36 l 4,0 0,4 -4,0 z M 28,36 l 4,0 0,4 -4,0 z M 32,36 l 4,0 0,4 -4,0 z M 36,36 l 4,0 0,4 -4,0 z M 48,36 l 4,0 0,4 -4,0 z M 60,36 l 4,0 0,4 -4,0 z M 68,36 l 4,0 0,4 -4,0 z M 72,36 l 4,0 0,4 -4,0 z M 76,36 l 4,0 0,4 -4,0 z M 80,36 l 4,0 0,4 -4,0 z M 92,36 l 4,0 0,4 -4,0 z M 96,36 l 4,0 0,4 -4,0 z M 100,36 l 4,0 0,4 -4,0 z M 104,36 l 4,0 0,4 -4,0 z M 108,36 l 4,0 0,4 -4,0 z M 112,36 l 4,0 0,4 -4,0 z M 116,36 l 4,0 0,4 -4,0 z M 120,36 l 4,0 0,4 -4,0 z M 140,36 l 4,0 0,4 -4,0 z M 160,36 l 4,0 0,4 -4,0 z M 184,36 l 4,0 0,4 -4,0 z M 192,36 l 4,0 0,4 -4,0 z M 200,36 l 4,0 0,4 -4,0 z M 208,36 l 4,0 0,4 -4,0 z M 4,40 l 4,0 0,4 -4,0 z M 8,40 l 4,0 0,4 -4,0 z M 16,40 l 4,0 0,4 -4,0 z M 32,40 l 4,0 0,4 -4,0 z M 44,40 l 4,0 0,4 -4,0 z M 48,40 l 4,0 0,4 -4,0 z M 60,40 l 4,0 0,4 -4,0 z M 72,40 l 4,0 0,4 -4,0 z M 76,40 l 4,0 0,4 -4,0 z M 80,40 l 4,0 0,4 -4,0 z M 96,40 l 4,0 0,4 -4,0 z M 100,40 l 4,0 0,4 -4,0 z M 124,40 l 4,0 0,4 -4,0 z M 128,40 l 4,0 0,4 -4,0 z M 132,40 l 4,0 0,4 -4,0 z M 136,40 l 4,0 0,4 -4,0 z M 140,40 l 4,0 0,4 -4,0 z M 148,40 l 4,0 0,4 -4,0 z M 164,40 l 4,0 0,4 -4,0 z M 168,40 l 4,0 0,4 -4,0 z M 176,40 l 4,0 0,4 -4,0 z M 180,40 l 4,0 0,4 -4,0 z M 192,40 l 4,0 0,4 -4,0 z M 196,40 l 4,0 0,4 -4,0 z M 208,40 l 4,0 0,4 -4,0 z M 212,40 l 4,0 0,4 -4,0 z M 4,44 l 4,0 0,4 -4,0 z M 12,44 l 4,0 0,4 -4,0 z M 20,44 l 4,0 0,4 -4,0 z M 24,44 l 4,0 0,4 -4,0 z M 28,44 l 4,0 0,4 -4,0 z M 36,44 l 4,0 0,4 -4,0 z M 40,44 l 4,0 0,4 -4,0 z M 52,44 l 4,0 0,4 -4,0 z M 56,44 l 4,0 0,4 -4,0 z M 76,44 l 4,0 0,4 -4,0 z M 84,44 l 4,0 0,4 -4,0 z M 100,44 l 4,0 0,4 -4,0 z M 108,44 l 4,0 0,4 -4,0 z M 112,44 l 4,0 0,4 -4,0 z M 116,44 l 4,0 0,4 -4,0 z M 128,44 l 4,0 0,4 -4,0 z M 140,44 l 4,0 0,4 -4,0 z M 144,44 l 4,0 0,4 -4,0 z M 148,44 l 4,0 0,4 -4,0 z M 160,44 l 4,0 0,4 -4,0 z M 172,44 l 4,0 0,4 -4,0 z M 180,44 l 4,0 0,4 -4,0 z M 200,44 l 4,0 0,4 -4,0 z M 204,44 l 4,0 0,4 -4,0 z M 212,44 l 4,0 0,4 -4,0 z M 32,48 l 4,0 0,4 -4,0 z M 36,48 l 4,0 0,4 -4,0 z M 44,48 l 4,0 0,4 -4,0 z M 52,48 l 4,0 0,4 -4,0 z M 60,48 l 4,0 0,4 -4,0 z M 68,48 l 4,0 0,4 -4,0 z M 84,48 l 4,0 0,4 -4,0 z M 88,48 l 4,0 0,4 -4,0 z M 100,48 l 4,0 0,4 -4,0 z M 124,48 l 4,0 0,4 -4,0 z M 136,48 l 4,0 0,4 -4,0 z M 140,48 l 4,0 0,4 -4,0 z M 148,48 l 4,0 0,4 -4,0 z M 152,48 l 4,0 0,4 -4,0 z M 164,48 l 4,0 0,4 -4,0 z M 172,48 l 4,0 0,4 -4,0 z M 180,48 l 4,0 0,4 -4,0 z M 192,48 l 4,0 0,4 -4,0 z M 4,52 l 4,0 0,4 -4,0 z M 8,52 l 4,0 0,4 -4,0 z M 16,52 l 4,0 0,4 -4,0 z M 20,52 l 4,0 0,4 -4,0 z M 28,52 l 4,0 0,4 -4,0 z M 32,52 l 4,0 0,4 -4,0 z M 36,52 l 4,0 0,4 -4,0 z M 44,52 l 4,0 0,4 -4,0 z M 48,52 l 4,0 0,4 -4,0 z M 60,52 l 4,0 0,4 -4,0 z M 64,52 l 4,0 0,4 -4,0 z M 72,52 l 4,0 0,4 -4,0 z M 76,52 l 4,0 0,4 -4,0 z M 80,52 l 4,0 0,4 -4,0 z M 84,52 l 4,0 0,4 -4,0 z M 88,52 l 4,0 0,4 -4,0 z M 92,52 l 4,0 0,4 -4,0 z M 96,52 l 4,0 0,4 -4,0 z M 116,52 l 4,0 0,4 -4,0 z M 124,52 l 4,0 0,4 -4,0 z M 136,52 l 4,0 0,4 -4,0 z M 144,52 l 4,0 0,4 -4,0 z M 148,52 l 4,0 0,4 -4,0 z M 152,52 l 4,0 0,4 -4,0 z M 156,52 l 4,0 0,4 -4,0 z M 160,52 l 4,0 0,4 -4,0 z M 164,52 l 4,0 0,4 -4,0 z M 168,52 l 4,0 0,4 -4,0 z M 180,52 l 4,0 0,4 -4,0 z M 200,52 l 4,0 0,4 -4,0 z M 204,52 l 4,0 0,4 -4,0 z M 212,52 l 4,0 0,4 -4,0 z M 4,56 l 4,0 0,4 -4,0 z M 8,56 l 4,0 0,4 -4,0 z M 12,56 l 4,0 0,4 -4,0 z M 24,56 l 4,0 0,4 -4,0 z M 32,56 l 4,0 0,4 -4,0 z M 40,56 l 4,0 0,4 -4,0 z M 44,56 l 4,0 0,4 -4,0 z M 48,56 l 4,0 0,4 -4,0 z M 56,56 l 4,0 0,4 -4,0 z M 64,56 l 4,0 0,4 -4,0 z M 68,56 l 4,0 0,4 -4,0 z M 72,56 l 4,0 0,4 -4,0 z M 76,56 l 4,0 0,4 -4,0 z M 80,56 l 4,0 0,4 -4,0 z M 84,56 l 4,0 0,4 -4,0 z M 88,56 l 4,0 0,4 -4,0 z M 100,56 l 4,0 0,4 -4,0 z M 108,56 l 4,0 0,4 -4,0 z M 124,56 l 4,0 0,4 -4,0 z M 136,56 l 4,0 0,4 -4,0 z M 148,56 l 4,0 0,4 -4,0 z M 160,56 l 4,0 0,4 -4,0 z M 164,56 l 4,0 0,4 -4,0 z M 180,56 l 4,0 0,4 -4,0 z M 184,56 l 4,0 0,4 -4,0 z M 196,56 l 4,0 0,4 -4,0 z M 204,56 l 4,0 0,4 -4,0 z M 212,56 l 4,0 0,4 -4,0 z M 4,60 l 4,0 0,4 -4,0 z M 16,60 l 4,0 0,4 -4,0 z M 20,60 l 4,0 0,4 -4,0 z M 24,60 l 4,0 0,4 -4,0 z M 28,60 l 4,0 0,4 -4,0 z M 40,60 l 4,0 0,4 -4,0 z M 44,60 l 4,0 0,4 -4,0 z M 52,60 l 4,0 0,4 -4,0 z M 56,60 l 4,0 0,4 -4,0 z M 64,60 l 4,0 0,4 -4,0 z M 72,60 l 4,0 0,4 -4,0 z M 80,60 l 4,0 0,4 -4,0 z M 88,60 l 4,0 0,4 -4,0 z M 96,60 l 4,0 0,4 -4,0 z M 100,60 l 4,0 0,4 -4,0 z M 104,60 l 4,0 0,4 -4,0 z M 108,60 l 4,0 0,4 -4,0 z M 120,60 l 4,0 0,4 -4,0 z M 128,60 l 4,0 0,4 -4,0 z M 136,60 l 4,0 0,4 -4,0 z M 140,60 l 4,0 0,4 -4,0 z M 144,60 l 4,0 0,4 -4,0 z M 152,60 l 4,0 0,4 -4,0 z M 156,60 l 4,0 0,4 -4,0 z M 160,60 l 4,0 0,4 -4,0 z M 168,60 l 4,0 0,4 -4,0 z M 172,60 l 4,0 0,4 -4,0 z M 176,60 l 4,0 0,4 -4,0 z M 180,60 l 4,0 0,4 -4,0 z M 188,60 l 4,0 0,4 -4,0 z M 192,60 l 4,0 0,4 -4,0 z M 196,60 l 4,0 0,4 -4,0 z M 200,60 l 4,0 0,4 -4,0 z M 204,60 l 4,0 0,4 -4,0 z M 208,60 l 4,0 0,4 -4,0 z M 8,64 l 4,0 0,4 -4,0 z M 20,64 l 4,0 0,4 -4,0 z M 24,64 l 4,0 0,4 -4,0 z M 44,64 l 4,0 0,4 -4,0 z M 48,64 l 4,0 0,4 -4,0 z M 52,64 l 4,0 0,4 -4,0 z M 60,64 l 4,0 0,4 -4,0 z M 68,64 l 4,0 0,4 -4,0 z M 76,64 l 4,0 0,4 -4,0 z M 80,64 l 4,0 0,4 -4,0 z M 92,64 l 4,0 0,4 -4,0 z M 112,64 l 4,0 0,4 -4,0 z M 116,64 l 4,0 0,4 -4,0 z M 120,64 l 4,0 0,4 -4,0 z M 124,64 l 4,0 0,4 -4,0 z M 132,64 l 4,0 0,4 -4,0 z M 136,64 l 4,0 0,4 -4,0 z M 152,64 l 4,0 0,4 -4,0 z M 156,64 l 4,0 0,4 -4,0 z M 168,64 l 4,0 0,4 -4,0 z M 176,64 l 4,0 0,4 -4,0 z M 184,64 l 4,0 0,4 -4,0 z M 188,64 l 4,0 0,4 -4,0 z M 192,64 l 4,0 0,4 -4,0 z M 196,64 l 4,0 0,4 -4,0 z M 200,64 l 4,0 0,4 -4,0 z M 204,64 l 4,0 0,4 -4,0 z M 212,64 l 4,0 0,4 -4,0 z M 12,68 l 4,0 0,4 -4,0 z M 16,68 l 4,0 0,4 -4,0 z M 20,68 l 4,0 0,4 -4,0 z M 28,68 l 4,0 0,4 -4,0 z M 32,68 l 4,0 0,4 -4,0 z M 40,68 l 4,0 0,4 -4,0 z M 60,68 l 4,0 0,4 -4,0 z M 64,68 l 4,0 0,4 -4,0 z M 68,68 l 4,0 0,4 -4,0 z M 80,68 l 4,0 0,4 -4,0 z M 92,68 l 4,0 0,4 -4,0 z M 104,68 l 4,0 0,4 -4,0 z M 128,68 l 4,0 0,4 -4,0 z M 132,68 l 4,0 0,4 -4,0 z M 140,68 l 4,0 0,4 -4,0 z M 148,68 l 4,0 0,4 -4,0 z M 152,68 l 4,0 0,4 -4,0 z M 160,68 l 4,0 0,4 -4,0 z M 176,68 l 4,0 0,4 -4,0 z M 184,68 l 4,0 0,4 -4,0 z M 188,68 l 4,0 0,4 -4,0 z M 192,68 l 4,0 0,4 -4,0 z M 196,68 l 4,0 0,4 -4,0 z M 200,68 l 4,0 0,4 -4,0 z M 204,68 l 4,0 0,4 -4,0 z M 4,72 l 4,0 0,4 -4,0 z M 8,72 l 4,0 0,4 -4,0 z M 12,72 l 4,0 0,4 -4,0 z M 20,72 l 4,0 0,4 -4,0 z M 24,72 l 4,0 0,4 -4,0 z M 52,72 l 4,0 0,4 -4,0 z M 64,72 l 4,0 0,4 -4,0 z M 68,72 l 4,0 0,4 -4,0 z M 76,72 l 4,0 0,4 -4,0 z M 80,72 l 4,0 0,4 -4,0 z M 96,72 l 4,0 0,4 -4,0 z M 100,72 l 4,0 0,4 -4,0 z M 104,72 l 4,0 0,4 -4,0 z M 124,72 l 4,0 0,4 -4,0 z M 132,72 l 4,0 0,4 -4,0 z M 136,72 l 4,0 0,4 -4,0 z M 140,72 l 4,0 0,4 -4,0 z M 144,72 l 4,0 0,4 -4,0 z M 148,72 l 4,0 0,4 -4,0 z M 168,72 l 4,0 0,4 -4,0 z M 176,72 l 4,0 0,4 -4,0 z M 180,72 l 4,0 0,4 -4,0 z M 192,72 l 4,0 0,4 -4,0 z M 200,72 l 4,0 0,4 -4,0 z M 208,72 l 4,0 0,4 -4,0 z M 8,76 l 4,0 0,4 -4,0 z M 12,76 l 4,0 0,4 -4,0 z M 24,76 l 4,0 0,4 -4,0 z M 28,76 l 4,0 0,4 -4,0 z M 48,76 l 4,0 0,4 -4,0 z M 52,76 l 4,0 0,4 -4,0 z M 68,76 l 4,0 0,4 -4,0 z M 76,76 l 4,0 0,4 -4,0 z M 80,76 l 4,0 0,4 -4,0 z M 96,76 l 4,0 0,4 -4,0 z M 100,76 l 4,0 0,4 -4,0 z M 120,76 l 4,0 0,4 -4,0 z M 124,76 l 4,0 0,4 -4,0 z M 128,76 l 4,0 0,4 -4,0 z M 140,76 l 4,0 0,4 -4,0 z M 144,76 l 4,0 0,4 -4,0 z M 148,76 l 4,0 0,4 -4,0 z M 152,76 l 4,0 0,4 -4,0 z M 172,76 l 4,0 0,4 -4,0 z M 196,76 l 4,0 0,4 -4,0 z M 200,76 l 4,0 0,4 -4,0 z M 204,76 l 4,0 0,4 -4,0 z M 208,76 l 4,0 0,4 -4,0 z M 4,80 l 4,0 0,4 -4,0 z M 8,80 l 4,0 0,4 -4,0 z M 12,80 l 4,0 0,4 -4,0 z M 16,80 l 4,0 0,4 -4,0 z M 40,80 l 4,0 0,4 -4,0 z M 52,80 l 4,0 0,4 -4,0 z M 56,80 l 4,0 0,4 -4,0 z M 60,80 l 4,0 0,4 -4,0 z M 64,80 l 4,0 0,4 -4,0 z M 76,80 l 4,0 0,4 -4,0 z M 84,80 l 4,0 0,4 -4,0 z M 88,80 l 4,0 0,4 -4,0 z M 92,80 l 4,0 0,4 -4,0 z M 108,80 l 4,0 0,4 -4,0 z M 120,80 l 4,0 0,4 -4,0 z M 124,80 l 4,0 0,4 -4,0 z M 132,80 l 4,0 0,4 -4,0 z M 136,80 l 4,0 0,4 -4,0 z M 144,80 l 4,0 0,4 -4,0 z M 148,80 l 4,0 0,4 -4,0 z M 164,80 l 4,0 0,4 -4,0 z M 168,80 l 4,0 0,4 -4,0 z M 180,80 l 4,0 0,4 -4,0 z M 184,80 l 4,0 0,4 -4,0 z M 192,80 l 4,0 0,4 -4,0 z M 204,80 l 4,0 0,4 -4,0 z M 8,84 l 4,0 0,4 -4,0 z M 16,84 l 4,0 0,4 -4,0 z M 28,84 l 4,0 0,4 -4,0 z M 32,84 l 4,0 0,4 -4,0 z M 36,84 l 4,0 0,4 -4,0 z M 40,84 l 4,0 0,4 -4,0 z M 56,84 l 4,0 0,4 -4,0 z M 60,84 l 4,0 0,4 -4,0 z M 64,84 l 4,0 0,4 -4,0 z M 68,84 l 4,0 0,4 -4,0 z M 76,84 l 4,0 0,4 -4,0 z M 92,84 l 4,0 0,4 -4,0 z M 100,84 l 4,0 0,4 -4,0 z M 112,84 l 4,0 0,4 -4,0 z M 116,84 l 4,0 0,4 -4,0 z M 120,84 l 4,0 0,4 -4,0 z M 124,84 l 4,0 0,4 -4,0 z M 128,84 l 4,0 0,4 -4,0 z M 136,84 l 4,0 0,4 -4,0 z M 140,84 l 4,0 0,4 -4,0 z M 144,84 l 4,0 0,4 -4,0 z M 156,84 l 4,0 0,4 -4,0 z M 160,84 l 4,0 0,4 -4,0 z M 168,84 l 4,0 0,4 -4,0 z M 172,84 l 4,0 0,4 -4,0 z M 180,84 l 4,0 0,4 -4,0 z M 184,84 l 4,0 0,4 -4,0 z M 188,84 l 4,0 0,4 -4,0 z M 204,84 l 4,0 0,4 -4,0 z M 4,88 l 4,0 0,4 -4,0 z M 20,88 l 4,0 0,4 -4,0 z M 32,88 l 4,0 0,4 -4,0 z M 36,88 l 4,0 0,4 -4,0 z M 68,88 l 4,0 0,4 -4,0 z M 92,88 l 4,0 0,4 -4,0 z M 96,88 l 4,0 0,4 -4,0 z M 100,88 l 4,0 0,4 -4,0 z M 108,88 l 4,0 0,4 -4,0 z M 112,88 l 4,0 0,4 -4,0 z M 124,88 l 4,0 0,4 -4,0 z M 128,88 l 4,0 0,4 -4,0 z M 136,88 l 4,0 0,4 -4,0 z M 156,88 l 4,0 0,4 -4,0 z M 172,88 l 4,0 0,4 -4,0 z M 184,88 l 4,0 0,4 -4,0 z M 188,88 l 4,0 0,4 -4,0 z M 204,88 l 4,0 0,4 -4,0 z M 212,88 l 4,0 0,4 -4,0 z M 4,92 l 4,0 0,4 -4,0 z M 8,92 l 4,0 0,4 -4,0 z M 16,92 l 4,0 0,4 -4,0 z M 20,92 l 4,0 0,4 -4,0 z M 24,92 l 4,0 0,4 -4,0 z M 28,92 l 4,0 0,4 -4,0 z M 32,92 l 4,0 0,4 -4,0 z M 64,92 l 4,0 0,4 -4,0 z M 80,92 l 4,0 0,4 -4,0 z M 84,92 l 4,0 0,4 -4,0 z M 96,92 l 4,0 0,4 -4,0 z M 100,92 l 4,0 0,4 -4,0 z M 104,92 l 4,0 0,4 -4,0 z M 108,92 l 4,0 0,4 -4,0 z M 132,92 l 4,0 0,4 -4,0 z M 136,92 l 4,0 0,4 -4,0 z M 148,92 l 4,0 0,4 -4,0 z M 152,92 l 4,0 0,4 -4,0 z M 156,92 l 4,0 0,4 -4,0 z M 168,92 l 4,0 0,4 -4,0 z M 176,92 l 4,0 0,4 -4,0 z M 188,92 l 4,0 0,4 -4,0 z M 196,92 l 4,0 0,4 -4,0 z M 200,92 l 4,0 0,4 -4,0 z M 208,92 l 4,0 0,4 -4,0 z M 212,92 l 4,0 0,4 -4,0 z M 4,96 l 4,0 0,4 -4,0 z M 32,96 l 4,0 0,4 -4,0 z M 40,96 l 4,0 0,4 -4,0 z M 64,96 l 4,0 0,4 -4,0 z M 72,96 l 4,0 0,4 -4,0 z M 88,96 l 4,0 0,4 -4,0 z M 96,96 l 4,0 0,4 -4,0 z M 100,96 l 4,0 0,4 -4,0 z M 104,96 l 4,0 0,4 -4,0 z M 108,96 l 4,0 0,4 -4,0 z M 112,96 l 4,0 0,4 -4,0 z M 120,96 l 4,0 0,4 -4,0 z M 124,96 l 4,0 0,4 -4,0 z M 128,96 l 4,0 0,4 -4,0 z M 144,96 l 4,0 0,4 -4,0 z M 156,96 l 4,0 0,4 -4,0 z M 168,96 l 4,0 0,4 -4,0 z M 176,96 l 4,0 0,4 -4,0 z M 184,96 l 4,0 0,4 -4,0 z M 188,96 l 4,0 0,4 -4,0 z M 192,96 l 4,0 0,4 -4,0 z M 196,96 l 4,0 0,4 -4,0 z M 200,96 l 4,0 0,4 -4,0 z M 204,96 l 4,0 0,4 -4,0 z M 208,96 l 4,0 0,4 -4,0 z M 4,100 l 4,0 0,4 -4,0 z M 8,100 l 4,0 0,4 -4,0 z M 12,100 l 4,0 0,4 -4,0 z M 16,100 l 4,0 0,4 -4,0 z M 20,100 l 4,0 0,4 -4,0 z M 24,100 l 4,0 0,4 -4,0 z M 28,100 l 4,0 0,4 -4,0 z M 32,100 l 4,0 0,4 -4,0 z M 36,100 l 4,0 0,4 -4,0 z M 40,100 l 4,0 0,4 -4,0 z M 44,100 l 4,0 0,4 -4,0 z M 48,100 l 4,0 0,4 -4,0 z M 52,100 l 4,0 0,4 -4,0 z M 80,100 l 4,0 0,4 -4,0 z M 88,100 l 4,0 0,4 -4,0 z M 92,100 l 4,0 0,4 -4,0 z M 96,100 l 4,0 0,4 -4,0 z M 100,100 l 4,0 0,4 -4,0 z M 104,100 l 4,0 0,4 -4,0 z M 108,100 l 4,0 0,4 -4,0 z M 112,100 l 4,0 0,4 -4,0 z M 116,100 l 4,0 0,4 -4,0 z M 128,100 l 4,0 0,4 -4,0 z M 136,100 l 4,0 0,4 -4,0 z M 144,100 l 4,0 0,4 -4,0 z M 152,100 l 4,0 0,4 -4,0 z M 156,100 l 4,0 0,4 -4,0 z M 160,100 l 4,0 0,4 -4,0 z M 164,100 l 4,0 0,4 -4,0 z M 176,100 l 4,0 0,4 -4,0 z M 180,100 l 4,0 0,4 -4,0 z M 184,100 l 4,0 0,4 -4,0 z M 188,100 l 4,0 0,4 -4,0 z M 192,100 l 4,0 0,4 -4,0 z M 196,100 l 4,0 0,4 -4,0 z M 200,100 l 4,0 0,4 -4,0 z M 20,104 l 4,0 0,4 -4,0 z M 36,104 l 4,0 0,4 -4,0 z M 44,104 l 4,0 0,4 -4,0 z M 52,104 l 4,0 0,4 -4,0 z M 72,104 l 4,0 0,4 -4,0 z M 76,104 l 4,0 0,4 -4,0 z M 80,104 l 4,0 0,4 -4,0 z M 96,104 l 4,0 0,4 -4,0 z M 100,104 l 4,0 0,4 -4,0 z M 116,104 l 4,0 0,4 -4,0 z M 124,104 l 4,0 0,4 -4,0 z M 132,104 l 4,0 0,4 -4,0 z M 136,104 l 4,0 0,4 -4,0 z M 148,104 l 4,0 0,4 -4,0 z M 152,104 l 4,0 0,4 -4,0 z M 156,104 l 4,0 0,4 -4,0 z M 164,104 l 4,0 0,4 -4,0 z M 168,104 l 4,0 0,4 -4,0 z M 180,104 l 4,0 0,4 -4,0 z M 196,104 l 4,0 0,4 -4,0 z M 208,104 l 4,0 0,4 -4,0 z M 8,108 l 4,0 0,4 -4,0 z M 16,108 l 4,0 0,4 -4,0 z M 20,108 l 4,0 0,4 -4,0 z M 28,108 l 4,0 0,4 -4,0 z M 36,108 l 4,0 0,4 -4,0 z M 40,108 l 4,0 0,4 -4,0 z M 52,108 l 4,0 0,4 -4,0 z M 56,108 l 4,0 0,4 -4,0 z M 60,108 l 4,0 0,4 -4,0 z M 68,108 l 4,0 0,4 -4,0 z M 76,108 l 4,0 0,4 -4,0 z M 80,108 l 4,0 0,4 -4,0 z M 84,108 l 4,0 0,4 -4,0 z M 96,108 l 4,0 0,4 -4,0 z M 100,108 l 4,0 0,4 -4,0 z M 108,108 l 4,0 0,4 -4,0 z M 116,108 l 4,0 0,4 -4,0 z M 120,108 l 4,0 0,4 -4,0 z M 124,108 l 4,0 0,4 -4,0 z M 128,108 l 4,0 0,4 -4,0 z M 144,108 l 4,0 0,4 -4,0 z M 148,108 l 4,0 0,4 -4,0 z M 156,108 l 4,0 0,4 -4,0 z M 160,108 l 4,0 0,4 -4,0 z M 172,108 l 4,0 0,4 -4,0 z M 176,108 l 4,0 0,4 -4,0 z M 180,108 l 4,0 0,4 -4,0 z M 188,108 l 4,0 0,4 -4,0 z M 196,108 l 4,0 0,4 -4,0 z M 212,108 l 4,0 0,4 -4,0 z M 8,112 l 4,0 0,4 -4,0 z M 20,112 l 4,0 0,4 -4,0 z M 36,112 l 4,0 0,4 -4,0 z M 40,112 l 4,0 0,4 -4,0 z M 44,112 l 4,0 0,4 -4,0 z M 48,112 l 4,0 0,4 -4,0 z M 52,112 l 4,0 0,4 -4,0 z M 56,112 l 4,0 0,4 -4,0 z M 64,112 l 4,0 0,4 -4,0 z M 76,112 l 4,0 0,4 -4,0 z M 84,112 l 4,0 0,4 -4,0 z M 88,112 l 4,0 0,4 -4,0 z M 92,112 l 4,0 0,4 -4,0 z M 100,112 l 4,0 0,4 -4,0 z M 116,112 l 4,0 0,4 -4,0 z M 128,112 l 4,0 0,4 -4,0 z M 136,112 l 4,0 0,4 -4,0 z M 140,112 l 4,0 0,4 -4,0 z M 144,112 l 4,0 0,4 -4,0 z M 148,112 l 4,0 0,4 -4,0 z M 156,112 l 4,0 0,4 -4,0 z M 164,112 l 4,0 0,4 -4,0 z M 180,112 l 4,0 0,4 -4,0 z M 196,112 l 4,0 0,4 -4,0 z M 4,116 l 4,0 0,4 -4,0 z M 8,116 l 4,0 0,4 -4,0 z M 20,116 l 4,0 0,4 -4,0 z M 24,116 l 4,0 0,4 -4,0 z M 28,116 l 4,0 0,4 -4,0 z M 32,116 l 4,0 0,4 -4,0 z M 36,116 l 4,0 0,4 -4,0 z M 44,116 l 4,0 0,4 -4,0 z M 48,116 l 4,0 0,4 -4,0 z M 56,116 l 4,0 0,4 -4,0 z M 68,116 l 4,0 0,4 -4,0 z M 72,116 l 4,0 0,4 -4,0 z M 92,116 l 4,0 0,4 -4,0 z M 96,116 l 4,0 0,4 -4,0 z M 100,116 l 4,0 0,4 -4,0 z M 104,116 l 4,0 0,4 -4,0 z M 108,116 l 4,0 0,4 -4,0 z M 112,116 l 4,0 0,4 -4,0 z M 116,116 l 4,0 0,4 -4,0 z M 120,116 l 4,0 0,4 -4,0 z M 144,116 l 4,0 0,4 -4,0 z M 148,116 l 4,0 0,4 -4,0 z M 156,116 l 4,0 0,4 -4,0 z M 160,116 l 4,0 0,4 -4,0 z M 164,116 l 4,0 0,4 -4,0 z M 168,116 l 4,0 0,4 -4,0 z M 172,116 l 4,0 0,4 -4,0 z M 180,116 l 4,0 0,4 -4,0 z M 184,116 l 4,0 0,4 -4,0 z M 188,116 l 4,0 0,4 -4,0 z M 192,116 l 4,0 0,4 -4,0 z M 196,116 l 4,0 0,4 -4,0 z M 200,116 l 4,0 0,4 -4,0 z M 204,116 l 4,0 0,4 -4,0 z M 4,120 l 4,0 0,4 -4,0 z M 8,120 l 4,0 0,4 -4,0 z M 12,120 l 4,0 0,4 -4,0 z M 40,120 l 4,0 0,4 -4,0 z M 48,120 l 4,0 0,4 -4,0 z M 60,120 l 4,0 0,4 -4,0 z M 64,120 l 4,0 0,4 -4,0 z M 88,120 l 4,0 0,4 -4,0 z M 104,120 l 4,0 0,4 -4,0 z M 136,120 l 4,0 0,4 -4,0 z M 140,120 l 4,0 0,4 -4,0 z M 148,120 l 4,0 0,4 -4,0 z M 160,120 l 4,0 0,4 -4,0 z M 172,120 l 4,0 0,4 -4,0 z M 176,120 l 4,0 0,4 -4,0 z M 184,120 l 4,0 0,4 -4,0 z M 188,120 l 4,0 0,4 -4,0 z M 200,120 l 4,0 0,4 -4,0 z M 204,120 l 4,0 0,4 -4,0 z M 212,120 l 4,0 0,4 -4,0 z M 4,124 l 4,0 0,4 -4,0 z M 28,124 l 4,0 0,4 -4,0 z M 32,124 l 4,0 0,4 -4,0 z M 36,124 l 4,0 0,4 -4,0 z M 40,124 l 4,0 0,4 -4,0 z M 44,124 l 4,0 0,4 -4,0 z M 48,124 l 4,0 0,4 -4,0 z M 56,124 l 4,0 0,4 -4,0 z M 60,124 l 4,0 0,4 -4,0 z M 84,124 l 4,0 0,4 -4,0 z M 88,124 l 4,0 0,4 -4,0 z M 104,124 l 4,0 0,4 -4,0 z M 128,124 l 4,0 0,4 -4,0 z M 132,124 l 4,0 0,4 -4,0 z M 148,124 l 4,0 0,4 -4,0 z M 168,124 l 4,0 0,4 -4,0 z M 176,124 l 4,0 0,4 -4,0 z M 184,124 l 4,0 0,4 -4,0 z M 188,124 l 4,0 0,4 -4,0 z M 200,124 l 4,0 0,4 -4,0 z M 208,124 l 4,0 0,4 -4,0 z M 212,124 l 4,0 0,4 -4,0 z M 8,128 l 4,0 0,4 -4,0 z M 12,128 l 4,0 0,4 -4,0 z M 16,128 l 4,0 0,4 -4,0 z M 20,128 l 4,0 0,4 -4,0 z M 44,128 l 4,0 0,4 -4,0 z M 60,128 l 4,0 0,4 -4,0 z M 72,128 l 4,0 0,4 -4,0 z M 88,128 l 4,0 0,4 -4,0 z M 92,128 l 4,0 0,4 -4,0 z M 108,128 l 4,0 0,4 -4,0 z M 112,128 l 4,0 0,4 -4,0 z M 120,128 l 4,0 0,4 -4,0 z M 124,128 l 4,0 0,4 -4,0 z M 132,128 l 4,0 0,4 -4,0 z M 144,128 l 4,0 0,4 -4,0 z M 152,128 l 4,0 0,4 -4,0 z M 172,128 l 4,0 0,4 -4,0 z M 192,128 l 4,0 0,4 -4,0 z M 12,132 l 4,0 0,4 -4,0 z M 28,132 l 4,0 0,4 -4,0 z M 32,132 l 4,0 0,4 -4,0 z M 44,132 l 4,0 0,4 -4,0 z M 52,132 l 4,0 0,4 -4,0 z M 56,132 l 4,0 0,4 -4,0 z M 60,132 l 4,0 0,4 -4,0 z M 64,132 l 4,0 0,4 -4,0 z M 68,132 l 4,0 0,4 -4,0 z M 80,132 l 4,0 0,4 -4,0 z M 92,132 l 4,0 0,4 -4,0 z M 100,132 l 4,0 0,4 -4,0 z M 120,132 l 4,0 0,4 -4,0 z M 132,132 l 4,0 0,4 -4,0 z M 136,132 l 4,0 0,4 -4,0 z M 140,132 l 4,0 0,4 -4,0 z M 144,132 l 4,0 0,4 -4,0 z M 148,132 l 4,0 0,4 -4,0 z M 156,132 l 4,0 0,4 -4,0 z M 184,132 l 4,0 0,4 -4,0 z M 188,132 l 4,0 0,4 -4,0 z M 192,132 l 4,0 0,4 -4,0 z M 200,132 l 4,0 0,4 -4,0 z M 204,132 l 4,0 0,4 -4,0 z M 32,136 l 4,0 0,4 -4,0 z M 40,136 l 4,0 0,4 -4,0 z M 44,136 l 4,0 0,4 -4,0 z M 48,136 l 4,0 0,4 -4,0 z M 52,136 l 4,0 0,4 -4,0 z M 64,136 l 4,0 0,4 -4,0 z M 68,136 l 4,0 0,4 -4,0 z M 72,136 l 4,0 0,4 -4,0 z M 76,136 l 4,0 0,4 -4,0 z M 80,136 l 4,0 0,4 -4,0 z M 84,136 l 4,0 0,4 -4,0 z M 88,136 l 4,0 0,4 -4,0 z M 96,136 l 4,0 0,4 -4,0 z M 100,136 l 4,0 0,4 -4,0 z M 104,136 l 4,0 0,4 -4,0 z M 112,136 l 4,0 0,4 -4,0 z M 116,136 l 4,0 0,4 -4,0 z M 120,136 l 4,0 0,4 -4,0 z M 124,136 l 4,0 0,4 -4,0 z M 128,136 l 4,0 0,4 -4,0 z M 132,136 l 4,0 0,4 -4,0 z M 136,136 l 4,0 0,4 -4,0 z M 144,136 l 4,0 0,4 -4,0 z M 148,136 l 4,0 0,4 -4,0 z M 152,136 l 4,0 0,4 -4,0 z M 160,136 l 4,0 0,4 -4,0 z M 164,136 l 4,0 0,4 -4,0 z M 176,136 l 4,0 0,4 -4,0 z M 204,136 l 4,0 0,4 -4,0 z M 20,140 l 4,0 0,4 -4,0 z M 24,140 l 4,0 0,4 -4,0 z M 28,140 l 4,0 0,4 -4,0 z M 36,140 l 4,0 0,4 -4,0 z M 48,140 l 4,0 0,4 -4,0 z M 52,140 l 4,0 0,4 -4,0 z M 56,140 l 4,0 0,4 -4,0 z M 64,140 l 4,0 0,4 -4,0 z M 68,140 l 4,0 0,4 -4,0 z M 72,140 l 4,0 0,4 -4,0 z M 84,140 l 4,0 0,4 -4,0 z M 96,140 l 4,0 0,4 -4,0 z M 104,140 l 4,0 0,4 -4,0 z M 108,140 l 4,0 0,4 -4,0 z M 116,140 l 4,0 0,4 -4,0 z M 124,140 l 4,0 0,4 -4,0 z M 128,140 l 4,0 0,4 -4,0 z M 136,140 l 4,0 0,4 -4,0 z M 140,140 l 4,0 0,4 -4,0 z M 144,140 l 4,0 0,4 -4,0 z M 148,140 l 4,0 0,4 -4,0 z M 152,140 l 4,0 0,4 -4,0 z M 160,140 l 4,0 0,4 -4,0 z M 168,140 l 4,0 0,4 -4,0 z M 172,140 l 4,0 0,4 -4,0 z M 176,140 l 4,0 0,4 -4,0 z M 180,140 l 4,0 0,4 -4,0 z M 184,140 l 4,0 0,4 -4,0 z M 200,140 l 4,0 0,4 -4,0 z M 212,140 l 4,0 0,4 -4,0 z M 4,144 l 4,0 0,4 -4,0 z M 8,144 l 4,0 0,4 -4,0 z M 12,144 l 4,0 0,4 -4,0 z M 20,144 l 4,0 0,4 -4,0 z M 32,144 l 4,0 0,4 -4,0 z M 44,144 l 4,0 0,4 -4,0 z M 52,144 l 4,0 0,4 -4,0 z M 56,144 l 4,0 0,4 -4,0 z M 64,144 l 4,0 0,4 -4,0 z M 76,144 l 4,0 0,4 -4,0 z M 84,144 l 4,0 0,4 -4,0 z M 88,144 l 4,0 0,4 -4,0 z M 92,144 l 4,0 0,4 -4,0 z M 112,144 l 4,0 0,4 -4,0 z M 116,144 l 4,0 0,4 -4,0 z M 120,144 l 4,0 0,4 -4,0 z M 124,144 l 4,0 0,4 -4,0 z M 132,144 l 4,0 0,4 -4,0 z M 136,144 l 4,0 0,4 -4,0 z M 144,144 l 4,0 0,4 -4,0 z M 148,144 l 4,0 0,4 -4,0 z M 152,144 l 4,0 0,4 -4,0 z M 164,144 l 4,0 0,4 -4,0 z M 168,144 l 4,0 0,4 -4,0 z M 172,144 l 4,0 0,4 -4,0 z M 192,144 l 4,0 0,4 -4,0 z M 196,144 l 4,0 0,4 -4,0 z M 212,144 l 4,0 0,4 -4,0 z M 4,148 l 4,0 0,4 -4,0 z M 12,148 l 4,0 0,4 -4,0 z M 20,148 l 4,0 0,4 -4,0 z M 24,148 l 4,0 0,4 -4,0 z M 28,148 l 4,0 0,4 -4,0 z M 40,148 l 4,0 0,4 -4,0 z M 48,148 l 4,0 0,4 -4,0 z M 64,148 l 4,0 0,4 -4,0 z M 68,148 l 4,0 0,4 -4,0 z M 76,148 l 4,0 0,4 -4,0 z M 80,148 l 4,0 0,4 -4,0 z M 84,148 l 4,0 0,4 -4,0 z M 92,148 l 4,0 0,4 -4,0 z M 116,148 l 4,0 0,4 -4,0 z M 120,148 l 4,0 0,4 -4,0 z M 124,148 l 4,0 0,4 -4,0 z M 136,148 l 4,0 0,4 -4,0 z M 152,148 l 4,0 0,4 -4,0 z M 160,148 l 4,0 0,4 -4,0 z M 164,148 l 4,0 0,4 -4,0 z M 172,148 l 4,0 0,4 -4,0 z M 176,148 l 4,0 0,4 -4,0 z M 184,148 l 4,0 0,4 -4,0 z M 188,148 l 4,0 0,4 -4,0 z M 196,148 l 4,0 0,4 -4,0 z M 200,148 l 4,0 0,4 -4,0 z M 204,148 l 4,0 0,4 -4,0 z M 212,148 l 4,0 0,4 -4,0 z M 8,152 l 4,0 0,4 -4,0 z M 16,152 l 4,0 0,4 -4,0 z M 20,152 l 4,0 0,4 -4,0 z M 32,152 l 4,0 0,4 -4,0 z M 40,152 l 4,0 0,4 -4,0 z M 44,152 l 4,0 0,4 -4,0 z M 52,152 l 4,0 0,4 -4,0 z M 60,152 l 4,0 0,4 -4,0 z M 64,152 l 4,0 0,4 -4,0 z M 84,152 l 4,0 0,4 -4,0 z M 88,152 l 4,0 0,4 -4,0 z M 100,152 l 4,0 0,4 -4,0 z M 104,152 l 4,0 0,4 -4,0 z M 112,152 l 4,0 0,4 -4,0 z M 120,152 l 4,0 0,4 -4,0 z M 128,152 l 4,0 0,4 -4,0 z M 132,152 l 4,0 0,4 -4,0 z M 136,152 l 4,0 0,4 -4,0 z M 144,152 l 4,0 0,4 -4,0 z M 148,152 l 4,0 0,4 -4,0 z M 160,152 l 4,0 0,4 -4,0 z M 164,152 l 4,0 0,4 -4,0 z M 180,152 l 4,0 0,4 -4,0 z M 200,152 l 4,0 0,4 -4,0 z M 8,156 l 4,0 0,4 -4,0 z M 16,156 l 4,0 0,4 -4,0 z M 28,156 l 4,0 0,4 -4,0 z M 32,156 l 4,0 0,4 -4,0 z M 40,156 l 4,0 0,4 -4,0 z M 44,156 l 4,0 0,4 -4,0 z M 48,156 l 4,0 0,4 -4,0 z M 80,156 l 4,0 0,4 -4,0 z M 84,156 l 4,0 0,4 -4,0 z M 92,156 l 4,0 0,4 -4,0 z M 96,156 l 4,0 0,4 -4,0 z M 100,156 l 4,0 0,4 -4,0 z M 104,156 l 4,0 0,4 -4,0 z M 124,156 l 4,0 0,4 -4,0 z M 132,156 l 4,0 0,4 -4,0 z M 140,156 l 4,0 0,4 -4,0 z M 144,156 l 4,0 0,4 -4,0 z M 156,156 l 4,0 0,4 -4,0 z M 160,156 l 4,0 0,4 -4,0 z M 168,156 l 4,0 0,4 -4,0 z M 180,156 l 4,0 0,4 -4,0 z M 192,156 l 4,0 0,4 -4,0 z M 200,156 l 4,0 0,4 -4,0 z M 208,156 l 4,0 0,4 -4,0 z M 24,160 l 4,0 0,4 -4,0 z M 36,160 l 4,0 0,4 -4,0 z M 40,160 l 4,0 0,4 -4,0 z M 52,160 l 4,0 0,4 -4,0 z M 56,160 l 4,0 0,4 -4,0 z M 72,160 l 4,0 0,4 -4,0 z M 76,160 l 4,0 0,4 -4,0 z M 88,160 l 4,0 0,4 -4,0 z M 92,160 l 4,0 0,4 -4,0 z M 96,160 l 4,0 0,4 -4,0 z M 100,160 l 4,0 0,4 -4,0 z M 108,160 l 4,0 0,4 -4,0 z M 112,160 l 4,0 0,4 -4,0 z M 116,160 l 4,0 0,4 -4,0 z M 124,160 l 4,0 0,4 -4,0 z M 128,160 l 4,0 0,4 -4,0 z M 132,160 l 4,0 0,4 -4,0 z M 144,160 l 4,0 0,4 -4,0 z M 156,160 l 4,0 0,4 -4,0 z M 172,160 l 4,0 0,4 -4,0 z M 176,160 l 4,0 0,4 -4,0 z M 196,160 l 4,0 0,4 -4,0 z M 208,160 l 4,0 0,4 -4,0 z M 212,160 l 4,0 0,4 -4,0 z M 8,164 l 4,0 0,4 -4,0 z M 12,164 l 4,0 0,4 -4,0 z M 28,164 l 4,0 0,4 -4,0 z M 48,164 l 4,0 0,4 -4,0 z M 52,164 l 4,0 0,4 -4,0 z M 72,164 l 4,0 0,4 -4,0 z M 76,164 l 4,0 0,4 -4,0 z M 80,164 l 4,0 0,4 -4,0 z M 88,164 l 4,0 0,4 -4,0 z M 92,164 l 4,0 0,4 -4,0 z M 112,164 l 4,0 0,4 -4,0 z M 128,164 l 4,0 0,4 -4,0 z M 132,164 l 4,0 0,4 -4,0 z M 140,164 l 4,0 0,4 -4,0 z M 156,164 l 4,0 0,4 -4,0 z M 164,164 l 4,0 0,4 -4,0 z M 172,164 l 4,0 0,4 -4,0 z M 176,164 l 4,0 0,4 -4,0 z M 192,164 l 4,0 0,4 -4,0 z M 208,164 l 4,0 0,4 -4,0 z M 12,168 l 4,0 0,4 -4,0 z M 20,168 l 4,0 0,4 -4,0 z M 24,168 l 4,0 0,4 -4,0 z M 32,168 l 4,0 0,4 -4,0 z M 36,168 l 4,0 0,4 -4,0 z M 56,168 l 4,0 0,4 -4,0 z M 64,168 l 4,0 0,4 -4,0 z M 72,168 l 4,0 0,4 -4,0 z M 76,168 l 4,0 0,4 -4,0 z M 80,168 l 4,0 0,4 -4,0 z M 84,168 l 4,0 0,4 -4,0 z M 96,168 l 4,0 0,4 -4,0 z M 100,168 l 4,0 0,4 -4,0 z M 104,168 l 4,0 0,4 -4,0 z M 112,168 l 4,0 0,4 -4,0 z M 116,168 l 4,0 0,4 -4,0 z M 124,168 l 4,0 0,4 -4,0 z M 132,168 l 4,0 0,4 -4,0 z M 136,168 l 4,0 0,4 -4,0 z M 144,168 l 4,0 0,4 -4,0 z M 156,168 l 4,0 0,4 -4,0 z M 160,168 l 4,0 0,4 -4,0 z M 164,168 l 4,0 0,4 -4,0 z M 168,168 l 4,0 0,4 -4,0 z M 172,168 l 4,0 0,4 -4,0 z M 176,168 l 4,0 0,4 -4,0 z M 188,168 l 4,0 0,4 -4,0 z M 200,168 l 4,0 0,4 -4,0 z M 4,172 l 4,0 0,4 -4,0 z M 8,172 l 4,0 0,4 -4,0 z M 16,172 l 4,0 0,4 -4,0 z M 20,172 l 4,0 0,4 -4,0 z M 24,172 l 4,0 0,4 -4,0 z M 28,172 l 4,0 0,4 -4,0 z M 48,172 l 4,0 0,4 -4,0 z M 60,172 l 4,0 0,4 -4,0 z M 64,172 l 4,0 0,4 -4,0 z M 96,172 l 4,0 0,4 -4,0 z M 108,172 l 4,0 0,4 -4,0 z M 124,172 l 4,0 0,4 -4,0 z M 128,172 l 4,0 0,4 -4,0 z M 136,172 l 4,0 0,4 -4,0 z M 140,172 l 4,0 0,4 -4,0 z M 148,172 l 4,0 0,4 -4,0 z M 164,172 l 4,0 0,4 -4,0 z M 168,172 l 4,0 0,4 -4,0 z M 172,172 l 4,0 0,4 -4,0 z M 180,172 l 4,0 0,4 -4,0 z M 184,172 l 4,0 0,4 -4,0 z M 192,172 l 4,0 0,4 -4,0 z M 196,172 l 4,0 0,4 -4,0 z M 208,172 l 4,0 0,4 -4,0 z M 212,172 l 4,0 0,4 -4,0 z M 8,176 l 4,0 0,4 -4,0 z M 12,176 l 4,0 0,4 -4,0 z M 32,176 l 4,0 0,4 -4,0 z M 36,176 l 4,0 0,4 -4,0 z M 40,176 l 4,0 0,4 -4,0 z M 44,176 l 4,0 0,4 -4,0 z M 52,176 l 4,0 0,4 -4,0 z M 60,176 l 4,0 0,4 -4,0 z M 64,176 l 4,0 0,4 -4,0 z M 68,176 l 4,0 0,4 -4,0 z M 72,176 l 4,0 0,4 -4,0 z M 76,176 l 4,0 0,4 -4,0 z M 84,176 l 4,0 0,4 -4,0 z M 88,176 l 4,0 0,4 -4,0 z M 92,176 l 4,0 0,4 -4,0 z M 96,176 l 4,0 0,4 -4,0 z M 100,176 l 4,0 0,4 -4,0 z M 104,176 l 4,0 0,4 -4,0 z M 112,176 l 4,0 0,4 -4,0 z M 128,176 l 4,0 0,4 -4,0 z M 136,176 l 4,0 0,4 -4,0 z M 144,176 l 4,0 0,4 -4,0 z M 148,176 l 4,0 0,4 -4,0 z M 156,176 l 4,0 0,4 -4,0 z M 164,176 l 4,0 0,4 -4,0 z M 172,176 l 4,0 0,4 -4,0 z M 180,176 l 4,0 0,4 -4,0 z M 188,176 l 4,0 0,4 -4,0 z M 192,176 l 4,0 0,4 -4,0 z M 196,176 l 4,0 0,4 -4,0 z M 204,176 l 4,0 0,4 -4,0 z M 16,180 l 4,0 0,4 -4,0 z M 28,180 l 4,0 0,4 -4,0 z M 48,180 l 4,0 0,4 -4,0 z M 52,180 l 4,0 0,4 -4,0 z M 60,180 l 4,0 0,4 -4,0 z M 64,180 l 4,0 0,4 -4,0 z M 76,180 l 4,0 0,4 -4,0 z M 88,180 l 4,0 0,4 -4,0 z M 100,180 l 4,0 0,4 -4,0 z M 104,180 l 4,0 0,4 -4,0 z M 108,180 l 4,0 0,4 -4,0 z M 112,180 l 4,0 0,4 -4,0 z M 116,180 l 4,0 0,4 -4,0 z M 148,180 l 4,0 0,4 -4,0 z M 156,180 l 4,0 0,4 -4,0 z M 160,180 l 4,0 0,4 -4,0 z M 164,180 l 4,0 0,4 -4,0 z M 168,180 l 4,0 0,4 -4,0 z M 172,180 l 4,0 0,4 -4,0 z M 176,180 l 4,0 0,4 -4,0 z M 180,180 l 4,0 0,4 -4,0 z M 184,180 l 4,0 0,4 -4,0 z M 188,180 l 4,0 0,4 -4,0 z M 192,180 l 4,0 0,4 -4,0 z M 196,180 l 4,0 0,4 -4,0 z M 200,180 l 4,0 0,4 -4,0 z M 204,180 l 4,0 0,4 -4,0 z M 36,184 l 4,0 0,4 -4,0 z M 56,184 l 4,0 0,4 -4,0 z M 64,184 l 4,0 0,4 -4,0 z M 72,184 l 4,0 0,4 -4,0 z M 76,184 l 4,0 0,4 -4,0 z M 80,184 l 4,0 0,4 -4,0 z M 100,184 l 4,0 0,4 -4,0 z M 116,184 l 4,0 0,4 -4,0 z M 136,184 l 4,0 0,4 -4,0 z M 160,184 l 4,0 0,4 -4,0 z M 164,184 l 4,0 0,4 -4,0 z M 180,184 l 4,0 0,4 -4,0 z M 196,184 l 4,0 0,4 -4,0 z M 200,184 l 4,0 0,4 -4,0 z M 208,184 l 4,0 0,4 -4,0 z M 212,184 l 4,0 0,4 -4,0 z M 4,188 l 4,0 0,4 -4,0 z M 8,188 l 4,0 0,4 -4,0 z M 12,188 l 4,0 0,4 -4,0 z M 16,188 l 4,0 0,4 -4,0 z M 20,188 l 4,0 0,4 -4,0 z M 24,188 l 4,0 0,4 -4,0 z M 28,188 l 4,0 0,4 -4,0 z M 36,188 l 4,0 0,4 -4,0 z M 40,188 l 4,0 0,4 -4,0 z M 44,188 l 4,0 0,4 -4,0 z M 48,188 l 4,0 0,4 -4,0 z M 52,188 l 4,0 0,4 -4,0 z M 56,188 l 4,0 0,4 -4,0 z M 60,188 l 4,0 0,4 -4,0 z M 72,188 l 4,0 0,4 -4,0 z M 84,188 l 4,0 0,4 -4,0 z M 92,188 l 4,0 0,4 -4,0 z M 100,188 l 4,0 0,4 -4,0 z M 108,188 l 4,0 0,4 -4,0 z M 116,188 l 4,0 0,4 -4,0 z M 124,188 l 4,0 0,4 -4,0 z M 140,188 l 4,0 0,4 -4,0 z M 144,188 l 4,0 0,4 -4,0 z M 148,188 l 4,0 0,4 -4,0 z M 156,188 l 4,0 0,4 -4,0 z M 168,188 l 4,0 0,4 -4,0 z M 176,188 l 4,0 0,4 -4,0 z M 180,188 l 4,0 0,4 -4,0 z M 188,188 l 4,0 0,4 -4,0 z M 196,188 l 4,0 0,4 -4,0 z M 204,188 l 4,0 0,4 -4,0 z M 4,192 l 4,0 0,4 -4,0 z M 28,192 l 4,0 0,4 -4,0 z M 40,192 l 4,0 0,4 -4,0 z M 72,192 l 4,0 0,4 -4,0 z M 76,192 l 4,0 0,4 -4,0 z M 80,192 l 4,0 0,4 -4,0 z M 88,192 l 4,0 0,4 -4,0 z M 100,192 l 4,0 0,4 -4,0 z M 116,192 l 4,0 0,4 -4,0 z M 124,192 l 4,0 0,4 -4,0 z M 128,192 l 4,0 0,4 -4,0 z M 132,192 l 4,0 0,4 -4,0 z M 144,192 l 4,0 0,4 -4,0 z M 148,192 l 4,0 0,4 -4,0 z M 156,192 l 4,0 0,4 -4,0 z M 160,192 l 4,0 0,4 -4,0 z M 172,192 l 4,0 0,4 -4,0 z M 176,192 l 4,0 0,4 -4,0 z M 180,192 l 4,0 0,4 -4,0 z M 196,192 l 4,0 0,4 -4,0 z M 200,192 l 4,0 0,4 -4,0 z M 204,192 l 4,0 0,4 -4,0 z M 212,192 l 4,0 0,4 -4,0 z M 4,196 l 4,0 0,4 -4,0 z M 12,196 l 4,0 0,4 -4,0 z M 16,196 l 4,0 0,4 -4,0 z M 20,196 l 4,0 0,4 -4,0 z M 28,196 l 4,0 0,4 -4,0 z M 36,196 l 4,0 0,4 -4,0 z M 56,196 l 4,0 0,4 -4,0 z M 64,196 l 4,0 0,4 -4,0 z M 76,196 l 4,0 0,4 -4,0 z M 80,196 l 4,0 0,4 -4,0 z M 88,196 l 4,0 0,4 -4,0 z M 92,196 l 4,0 0,4 -4,0 z M 96,196 l 4,0 0,4 -4,0 z M 100,196 l 4,0 0,4 -4,0 z M 104,196 l 4,0 0,4 -4,0 z M 108,196 l 4,0 0,4 -4,0 z M 112,196 l 4,0 0,4 -4,0 z M 116,196 l 4,0 0,4 -4,0 z M 120,196 l 4,0 0,4 -4,0 z M 132,196 l 4,0 0,4 -4,0 z M 136,196 l 4,0 0,4 -4,0 z M 140,196 l 4,0 0,4 -4,0 z M 148,196 l 4,0 0,4 -4,0 z M 152,196 l 4,0 0,4 -4,0 z M 156,196 l 4,0 0,4 -4,0 z M 160,196 l 4,0 0,4 -4,0 z M 164,196 l 4,0 0,4 -4,0 z M 168,196 l 4,0 0,4 -4,0 z M 172,196 l 4,0 0,4 -4,0 z M 176,196 l 4,0 0,4 -4,0 z M 180,196 l 4,0 0,4 -4,0 z M 184,196 l 4,0 0,4 -4,0 z M 188,196 l 4,0 0,4 -4,0 z M 192,196 l 4,0 0,4 -4,0 z M 196,196 l 4,0 0,4 -4,0 z M 4,200 l 4,0 0,4 -4,0 z M 12,200 l 4,0 0,4 -4,0 z M 16,200 l 4,0 0,4 -4,0 z M 20,200 l 4,0 0,4 -4,0 z M 28,200 l 4,0 0,4 -4,0 z M 36,200 l 4,0 0,4 -4,0 z M 40,200 l 4,0 0,4 -4,0 z M 48,200 l 4,0 0,4 -4,0 z M 52,200 l 4,0 0,4 -4,0 z M 64,200 l 4,0 0,4 -4,0 z M 68,200 l 4,0 0,4 -4,0 z M 76,200 l 4,0 0,4 -4,0 z M 80,200 l 4,0 0,4 -4,0 z M 100,200 l 4,0 0,4 -4,0 z M 104,200 l 4,0 0,4 -4,0 z M 116,200 l 4,0 0,4 -4,0 z M 120,200 l 4,0 0,4 -4,0 z M 124,200 l 4,0 0,4 -4,0 z M 132,200 l 4,0 0,4 -4,0 z M 136,200 l 4,0 0,4 -4,0 z M 140,200 l 4,0 0,4 -4,0 z M 144,200 l 4,0 0,4 -4,0 z M 152,200 l 4,0 0,4 -4,0 z M 160,200 l 4,0 0,4 -4,0 z M 172,200 l 4,0 0,4 -4,0 z M 176,200 l 4,0 0,4 -4,0 z M 180,200 l 4,0 0,4 -4,0 z M 188,200 l 4,0 0,4 -4,0 z M 192,200 l 4,0 0,4 -4,0 z M 196,200 l 4,0 0,4 -4,0 z M 208,200 l 4,0 0,4 -4,0 z M 4,204 l 4,0 0,4 -4,0 z M 12,204 l 4,0 0,4 -4,0 z M 16,204 l 4,0 0,4 -4,0 z M 20,204 l 4,0 0,4 -4,0 z M 28,204 l 4,0 0,4 -4,0 z M 36,204 l 4,0 0,4 -4,0 z M 40,204 l 4,0 0,4 -4,0 z M 44,204 l 4,0 0,4 -4,0 z M 48,204 l 4,0 0,4 -4,0 z M 56,204 l 4,0 0,4 -4,0 z M 60,204 l 4,0 0,4 -4,0 z M 64,204 l 4,0 0,4 -4,0 z M 68,204 l 4,0 0,4 -4,0 z M 72,204 l 4,0 0,4 -4,0 z M 76,204 l 4,0 0,4 -4,0 z M 84,204 l 4,0 0,4 -4,0 z M 96,204 l 4,0 0,4 -4,0 z M 104,204 l 4,0 0,4 -4,0 z M 112,204 l 4,0 0,4 -4,0 z M 120,204 l 4,0 0,4 -4,0 z M 128,204 l 4,0 0,4 -4,0 z M 148,204 l 4,0 0,4 -4,0 z M 168,204 l 4,0 0,4 -4,0 z M 172,204 l 4,0 0,4 -4,0 z M 184,204 l 4,0 0,4 -4,0 z M 200,204 l 4,0 0,4 -4,0 z M 208,204 l 4,0 0,4 -4,0 z M 4,208 l 4,0 0,4 -4,0 z M 28,208 l 4,0 0,4 -4,0 z M 36,208 l 4,0 0,4 -4,0 z M 44,208 l 4,0 0,4 -4,0 z M 48,208 l 4,0 0,4 -4,0 z M 60,208 l 4,0 0,4 -4,0 z M 64,208 l 4,0 0,4 -4,0 z M 72,208 l 4,0 0,4 -4,0 z M 76,208 l 4,0 0,4 -4,0 z M 84,208 l 4,0 0,4 -4,0 z M 88,208 l 4,0 0,4 -4,0 z M 92,208 l 4,0 0,4 -4,0 z M 96,208 l 4,0 0,4 -4,0 z M 104,208 l 4,0 0,4 -4,0 z M 112,208 l 4,0 0,4 -4,0 z M 132,208 l 4,0 0,4 -4,0 z M 164,208 l 4,0 0,4 -4,0 z M 168,208 l 4,0 0,4 -4,0 z M 172,208 l 4,0 0,4 -4,0 z M 176,208 l 4,0 0,4 -4,0 z M 180,208 l 4,0 0,4 -4,0 z M 184,208 l 4,0 0,4 -4,0 z M 188,208 l 4,0 0,4 -4,0 z M 204,208 l 4,0 0,4 -4,0 z M 208,208 l 4,0 0,4 -4,0 z M 212,208 l 4,0 0,4 -4,0 z M 4,212 l 4,0 0,4 -4,0 z M 8,212 l 4,0 0,4 -4,0 z M 12,212 l 4,0 0,4 -4,0 z M 16,212 l 4,0 0,4 -4,0 z M 20,212 l 4,0 0,4 -4,0 z M 24,212 l 4,0 0,4 -4,0 z M 28,212 l 4,0 0,4 -4,0 z M 36,212 l 4,0 0,4 -4,0 z M 40,212 l 4,0 0,4 -4,0 z M 48,212 l 4,0 0,4 -4,0 z M 52,212 l 4,0 0,4 -4,0 z M 56,212 l 4,0 0,4 -4,0 z M 68,212 l 4,0 0,4 -4,0 z M 76,212 l 4,0 0,4 -4,0 z M 84,212 l 4,0 0,4 -4,0 z M 92,212 l 4,0 0,4 -4,0 z M 96,212 l 4,0 0,4 -4,0 z M 100,212 l 4,0 0,4 -4,0 z M 108,212 l 4,0 0,4 -4,0 z M 112,212 l 4,0 0,4 -4,0 z M 120,212 l 4,0 0,4 -4,0 z M 124,212 l 4,0 0,4 -4,0 z M 140,212 l 4,0 0,4 -4,0 z M 156,212 l 4,0 0,4 -4,0 z M 160,212 l 4,0 0,4 -4,0 z M 164,212 l 4,0 0,4 -4,0 z M 168,212 l 4,0 0,4 -4,0 z M 172,212 l 4,0 0,4 -4,0 z M 176,212 l 4,0 0,4 -4,0 z M 184,212 l 4,0 0,4 -4,0 z M 196,212 l 4,0 0,4 -4,0 z M 200,212 l 4,0 0,4 -4,0 z M 204,212 l 4,0 0,4 -4,0 z M 208,212 l 4,0 0,4 -4,0 z " />
	</g>
</svg>
